<?xml version="1.0" encoding="UTF-8" standalone="no"?>
<!-- Created with Inkscape (http://www.inkscape.org/) -->

<svg
   width="5.2916665mm"
   height="5.291667mm"
   viewBox="0 0 5.2916665 5.291667"
   version="1.1"
   id="svg1"
   xmlns="http://www.w3.org/2000/svg"
   xmlns:svg="http://www.w3.org/2000/svg">
  <defs
     id="defs1" />
  <g
     id="layer1"
     transform="translate(-102.39376,-145.78541)">
    <path
       fill-rule="evenodd"
       clip-rule="evenodd"
       d="m 103.45208,145.78542 c -0.28068,0 -0.54987,0.1115 -0.74835,0.30998 -0.19848,0.19848 -0.30998,0.46767 -0.30998,0.74835 v 3.175 c 0,0.2807 0.1115,0.54989 0.30998,0.74835 0.19848,0.19849 0.46767,0.30999 0.74835,0.30999 h 3.175 c 0.2807,0 0.54989,-0.1115 0.74835,-0.30999 0.19849,-0.19846 0.30999,-0.46765 0.30999,-0.74835 v -3.175 c 0,-0.28068 -0.1115,-0.54987 -0.30999,-0.74835 -0.19846,-0.19848 -0.46765,-0.30998 -0.74835,-0.30998 z m -0.52916,1.05833 c 0,-0.14034 0.0557,-0.27493 0.15499,-0.37417 0.0992,-0.0992 0.23383,-0.15499 0.37417,-0.15499 h 3.175 c 0.14034,0 0.27493,0.0557 0.37418,0.15499 0.0992,0.0992 0.15499,0.23383 0.15499,0.37417 v 3.175 c 0,0.14034 -0.0558,0.27493 -0.15499,0.37418 -0.0992,0.0992 -0.23384,0.15499 -0.37418,0.15499 h -3.175 c -0.14034,0 -0.27493,-0.0558 -0.37417,-0.15499 -0.0992,-0.0993 -0.15499,-0.23384 -0.15499,-0.37418 z"
       fill="#000000"
       id="path1"
       style="stroke-width:0.264583" />
    <path
       style="font-weight:bold;font-size:3.39273px;line-height:1.25;font-family:Sans;-inkscape-font-specification:'Sans Bold';letter-spacing:0px;word-spacing:0px;stroke-width:0.195147"
       d="m 104.94763,146.97647 h 0.46219 l 0.47295,2.14469 0.47176,-2.14469 h 0.46219 l -0.66045,2.90564 h -0.54819 z"
       id="path2" />
    <path
       style="font-weight:bold;font-size:3.39273px;line-height:1.25;font-family:Sans;-inkscape-font-specification:'Sans Bold';letter-spacing:0px;word-spacing:0px;stroke-width:0.195147"
       d="m 104.77922,149.72252 q -0.12659,0.10703 -0.26394,0.16154 -0.13734,0.0545 -0.28663,0.0545 -0.44548,0 -0.70584,-0.4048 -0.26036,-0.40675 -0.26036,-1.10154 0,-0.69673 0.26036,-1.10154 0.26036,-0.40675 0.70584,-0.40675 0.14929,0 0.28663,0.0545 0.13735,0.0545 0.26394,0.16152 v 0.60138 q -0.12778,-0.14208 -0.25199,-0.20824 -0.12421,-0.0661 -0.26156,-0.0661 -0.24603,0 -0.38696,0.2569 -0.14092,0.2569 -0.14092,0.70841 0,0.44957 0.14092,0.70646 0.14093,0.2569 0.38696,0.2569 0.13735,0 0.26156,-0.0661 0.12421,-0.0661 0.25199,-0.20824 z"
       id="text2" />
  </g>
</svg>
