<?xml version="1.0" encoding="UTF-8" standalone="no"?>
<svg
   enable-background="new 430 796 200 200"
   height="200"
   viewBox="430 796 114.93499 200"
   width="114.93499"
   version="1.1"
   id="svg2"
   xmlns="http://www.w3.org/2000/svg"
   xmlns:svg="http://www.w3.org/2000/svg">
  <defs
     id="defs2" />
  <path
     d="m 487.468,917.839 c -5.365,0 -10.573,-0.669 -15.559,-1.912 v 60.892 L 487.468,996 503.026,976.818 v -60.892 c -4.984,1.244 -10.193,1.913 -15.558,1.913 z"
     id="path1"
     style="fill:#333333" />
  <path
     d="M 487.468,796 C 455.729,796 430,821.727 430,853.467 c 0,31.741 25.729,57.466 57.468,57.466 31.739,0 57.467,-25.726 57.467,-57.466 C 544.936,821.727 519.207,796 487.468,796 Z m -8.309,48.465 c -6.848,7.18 -16.788,8.817 -22.202,3.655 -5.412,-5.163 -4.249,-15.168 2.598,-22.349 6.848,-7.181 16.788,-8.817 22.202,-3.655 5.412,5.162 4.249,15.168 -2.598,22.349 z"
     id="path2"
     style="fill:#d40000" />
</svg>
