<?xml version="1.0" encoding="utf-8"?>
<!-- Generator: Adobe Illustrator 26.5.1, SVG Export Plug-In . SVG Version: 6.00 Build 0)  -->
<svg version="1.1" id="Layer_1" xmlns="http://www.w3.org/2000/svg" xmlns:xlink="http://www.w3.org/1999/xlink" x="0px" y="0px"
	 viewBox="0 0 556 380" style="enable-background:new 0 0 556 380;" xml:space="preserve">
<path d="M66,137.2l-1.9-1v-0.1L66,137.2z"/>
<path d="M435.1,219.2c0-0.2-0.1-0.4-0.1-0.4c-0.5-10.7,0.4-21.2-2.5-31.7c-1.4-5.4-2.9-9.1-7.6-12.2c-5.5-3.6-11-7.4-16.9-10.3
	c-14.7-7.4-30.2-12.4-46.5-15.8c-35.3-7.3-70.8-9-106.5-7.6c-14.9,0.6-29.8,1.7-44.5,3.8c-25,3.7-49.4,9.8-71.6,22.4
	c-8.3,4.6-14.3,7.7-16.7,17.4c-5.5,22.8-5.2,58.5-5.9,81.7c-0.1,4.4,1.6,7.5,4.9,9.7c3.2,2.2,6.7,4.2,10.4,5.7
	c21.7,8.8,45,11.3,68,14.6c11.8,1.8,23.9,2.3,35.9,2.6c53.1,1.6,106.3,1.5,158.6-9.6c12.2-2.5,23.9-7.9,35.5-12.5
	c3.9-1.6,6.6-5.3,6.5-10C435.8,255.7,435.7,230.5,435.1,219.2L435.1,219.2z M413.3,272.9c-5.7,2.5-11.7,5-17.7,6.1
	c-10.9,2.1-21.9,3.9-33,4.7c-21,1.4-42.2,2.5-63.2,3.6c-7.9,0.4-15.7,0.6-23.5,0.5c-12.5,0-24.9-0.5-37.5-1.1
	c-15.7-0.8-31.3-1.7-46.9-3c-16.3-1.5-32.9-2.9-48.4-9c-0.5-0.2-1.1-0.3-1.6-0.5c-4.3-1.9-10-6.1-4.6-10.1c3.6-2.6,8.6-3.4,12.8-4.6
	c7.5-2.2,15.3-4,23.2-5.3c28.3-4.5,56.8-5.7,85.5-5.5c26.7,0.2,53.3-0.4,80,1.1c19.6,1.1,39,4.6,58.4,7.5c4.9,0.7,10,1.5,14.5,3.6
	C416,263.2,420.6,269.7,413.3,272.9L413.3,272.9z"/>
<path d="M73.7,259.5c4.6,16.6,16.7,65.4,16.7,106.1c0,0-5.1,8.2-24.5,9.2c-19.3-1.1-24.4-9.2-24.4-9.2c0-40.7,12.2-89.5,16.7-106.1
	c-3.9-2.5-6.5-6.9-6.5-11.9c0-6.7,4.6-12.2,10.7-13.8v-27l7.1,4.2v22.8c6.1,1.6,10.7,7.1,10.7,13.8
	C80.2,252.5,77.6,256.9,73.7,259.5L73.7,259.5z"/>
<path d="M549.7,161.4c-31,17.8-61.2,35.2-92.3,53.2l-5.2,3v-1.3l-0.1-0.5c-0.1-2.1-0.1-4.1-0.1-6.2c-0.1-8.2-0.2-17.5-2.8-27
	c-2.1-7.8-5.3-16-14.9-22.3l-2.6-1.7c-4.9-3.2-10.1-6.7-16-9.5c-15.3-7.6-32-13.2-50.7-17.2c-27.5-5.6-56.2-8.4-87.9-8.4
	c-7.6,0-15.2,0.1-22.8,0.5c-18.1,0.8-32.8,2-46.3,3.9c-31.7,4.7-56.3,12.4-78.3,24.8c-9,4.9-20.2,11.3-24.3,27.9
	c-2.6,10.6-4,23.2-4.7,36.1l-7.8-4.6l-16.4-9.3l-1.8-1.1l-6.9-4l-1.8-1.1l-21.4-12.2c-12.8-7.5-25.9-14.9-40.2-23.2
	c6.4-4,11.2-7.1,16-9.9c81.6-46,163.4-91.9,244.8-138.2c8.9-4.9,15.4-4.9,24.3,0.1c82.8,47.1,165.9,93.7,248.8,140.5
	C541.7,155.5,545,158,549.7,161.4L549.7,161.4z"/>
</svg>
