<?xml version="1.0" encoding="UTF-8" standalone="no"?>
<!-- Generator: Adobe Illustrator 26.5.1, SVG Export Plug-In . SVG Version: 6.00 Build 0)  -->

<svg
   version="1.1"
   id="Layer_1"
   x="0px"
   y="0px"
   viewBox="0 0 116760 57000"
   xml:space="preserve"
   width="116760"
   height="57000"
   xmlns="http://www.w3.org/2000/svg"
   xmlns:svg="http://www.w3.org/2000/svg"><defs
   id="defs4" />
<path
   d="m -2418.2774,-3524.3234 -0.7317,-0.4105 v -0.041 z"
   id="path1"
   style="stroke-width:0.397627" />
<path
   d="m -2276.1336,-3490.6582 c 0,-0.082 -0.038,-0.1642 -0.038,-0.1642 -0.1926,-4.3929 0.154,-8.7037 -0.9628,-13.0145 -0.5392,-2.217 -1.1168,-3.736 -2.9268,-5.0087 -2.1181,-1.478 -4.2362,-3.0381 -6.5084,-4.2287 -5.6611,-3.0381 -11.6303,-5.0908 -17.9076,-6.4867 -13.5943,-2.997 -27.2657,-3.695 -41.0141,-3.1202 -5.7381,0.2463 -11.4762,0.6979 -17.1373,1.5601 -9.6278,1.519 -19.0244,4.0234 -27.5739,9.1963 -3.1964,1.8886 -5.507,3.1613 -6.4313,7.1436 -2.1181,9.3606 -2.0025,24.0173 -2.2721,33.5421 -0.039,1.8064 0.6162,3.0791 1.887,3.9823 1.2324,0.9032 2.5802,1.7243 4.0052,2.3401 8.3568,3.6129 17.3299,4.6393 26.1874,5.9941 4.5443,0.739 9.2041,0.9443 13.8254,1.0674 20.4493,0.6569 40.9371,0.6158 61.0783,-3.9413 4.6983,-1.0263 9.2041,-3.2433 13.6714,-5.1319 1.5019,-0.6568 2.5417,-2.1759 2.5032,-4.1055 -0.1156,-4.6392 -0.1541,-14.9851 -0.3851,-19.6243 z m -8.3954,22.0466 c -2.1952,1.0264 -4.5058,2.0527 -6.8165,2.5044 -4.1976,0.8621 -8.4338,1.6011 -12.7086,1.9295 -8.0873,0.5748 -16.2516,1.0264 -24.3389,1.478 -3.0423,0.1642 -6.0462,0.2464 -9.05,0.2053 -4.8139,0 -9.5892,-0.2053 -14.4416,-0.4516 -6.0462,-0.3284 -12.0539,-0.6979 -18.0616,-1.2317 -6.2773,-0.6158 -12.6701,-1.1906 -18.6393,-3.6949 -0.1926,-0.082 -0.4236,-0.1232 -0.6162,-0.2053 -1.656,-0.78 -3.8511,-2.5044 -1.7715,-4.1466 1.3864,-1.0674 3.3119,-1.3958 4.9294,-1.8885 2.8883,-0.9032 5.8922,-1.6422 8.9345,-2.1759 10.8986,-1.8475 21.8742,-2.3402 32.9269,-2.258 10.2824,0.082 20.5263,-0.1643 30.8087,0.4516 7.5481,0.4516 15.0193,1.8885 22.4904,3.0791 1.887,0.2874 3.8511,0.6158 5.5841,1.478 1.81,0.9442 3.5815,3.6128 0.7702,4.9266 z"
   id="path2"
   style="fill:#60a5fa;fill-opacity:1;stroke-width:0.397627" />
<path
   d="m -2415.3121,-3474.113 c 1.7715,6.8152 6.4313,26.85 6.4313,43.5595 0,0 -1.964,3.3665 -9.4351,3.777 -7.4326,-0.4516 -9.3967,-3.777 -9.3967,-3.777 0,-16.7095 4.6983,-36.7443 6.4313,-43.5595 -1.5019,-1.0264 -2.5032,-2.8328 -2.5032,-4.8856 0,-2.7506 1.7715,-5.0087 4.1207,-5.6656 v -11.0848 l 2.7343,1.7243 v 9.3605 c 2.3491,0.6569 4.1206,2.915 4.1206,5.6656 0,2.0118 -1.0013,3.8182 -2.5032,4.8856 z"
   id="path3"
   style="fill:#60a5fa;fill-opacity:1;stroke-width:0.397627" />
<path
   d="m -2232.0001,-3514.3881 c -11.9384,7.3079 -23.5687,14.4514 -35.5456,21.8414 l -2.0026,1.2316 v -0.5337 l -0.039,-0.2053 c -0.039,-0.8621 -0.039,-1.6832 -0.039,-2.5454 -0.038,-3.3665 -0.077,-7.1846 -1.0783,-11.0849 -0.8087,-3.2023 -2.0411,-6.5688 -5.7381,-9.1553 l -1.0013,-0.6979 c -1.887,-1.3138 -3.8896,-2.7507 -6.1617,-3.9002 -5.8922,-3.1202 -12.3235,-5.4193 -19.5251,-7.0615 -10.5905,-2.2991 -21.6431,-3.4486 -33.8511,-3.4486 -2.9268,0 -5.8536,0.041 -8.7805,0.2052 -6.9704,0.3285 -12.6315,0.8211 -17.8305,1.6012 -12.208,1.9296 -21.6817,5.0908 -30.1541,10.1816 -3.4659,2.0117 -7.7792,4.6393 -9.3581,11.4544 -1.0013,4.3519 -1.5404,9.5248 -1.81,14.8209 l -3.0039,-1.8885 -6.3158,-3.8181 -0.6932,-0.4517 -2.6572,-1.6422 -0.6932,-0.4516 -8.2413,-5.0087 c -4.9295,-3.0791 -9.9744,-6.1172 -15.4814,-9.5248 2.4647,-1.6422 4.3132,-2.9149 6.1617,-4.0644 31.4249,-18.8854 62.9268,-37.7297 94.2747,-56.7382 3.4275,-2.0117 5.9307,-2.0117 9.3582,0.041 31.887,19.3369 63.8896,38.4686 95.8151,57.6824 1.3094,0.739 2.5802,1.7654 4.3903,3.1612 z"
   id="path4"
   style="fill:#60a5fa;fill-opacity:1;stroke-width:0.397627" />
</svg>
