<?xml version="1.0" encoding="UTF-8" standalone="no"?>
<svg
   width="48"
   height="48"
   viewBox="0 0 256 256"
   fill="none"
   version="1.1"
   id="svg8"
   xmlns="http://www.w3.org/2000/svg"
   xmlns:svg="http://www.w3.org/2000/svg">
  <defs
     id="defs8" />
  <g
     id="g7">
    <svg
       width="256"
       height="256"
       viewBox="0 0 256 256"
       fill="none"
       version="1.1"
       id="svg7">
      <rect
         width="256"
         height="256"
         rx="60"
         fill="#0277bd"
         id="rect3"
         x="0"
         y="0" />
      <path
         d="m 53.7527,102.651 2.8628,31.942 h 71.4805 v -31.942 z"
         fill="#ebebeb"
         id="path4" />
      <path
         d="M 128.095,38 H 127.985 48 l 2.9036,31.9423 h 77.1914 z"
         fill="#ebebeb"
         id="path5" />
      <path
         d="m 128.095,218.841 v -33.233 l -0.14,0.037 -35.5737,-9.605 -2.2741,-25.476 H 72.821 58.0425 l 4.475,50.154 65.4305,18.164 z"
         fill="#ebebeb"
         id="path6" />
      <path
         d="m 167.318,134.593 -3.708,41.426 -35.625,9.616 v 33.231 l 65.483,-18.148 0.48,-5.397 7.506,-84.092 0.779,-8.578 L 208,38 h -80.015 v 31.9423 h 45.009 l -2.906,32.7087 h -42.103 v 31.942 z"
         fill="#ffffff"
         id="path7" />
    </svg>
  </g>
</svg>
