<?xml version="1.0" encoding="UTF-8" standalone="no"?>
<svg
   width="48"
   height="48"
   viewBox="0 0 256 256"
   fill="none"
   version="1.1"
   id="svg8"
   xmlns="http://www.w3.org/2000/svg"
   xmlns:svg="http://www.w3.org/2000/svg">
  <defs
     id="defs8" />
  <g
     id="g3">
    <svg
       width="256"
       height="256"
       fill="none"
       viewBox="0 0 256 256"
       version="1.1"
       id="svg3">
      <rect
         width="256"
         height="256"
         fill="#e14e1d"
         rx="60"
         id="rect1"
         x="0"
         y="0" />
      <path
         fill="#ffffff"
         d="m 48,38 8.6098,96.593 H 167.32 l -3.715,41.43 -35.646,9.638 -35.579,-9.624 -2.3788,-26.602 H 57.9389 l 4.5847,51.281 65.4274,18.172 65.51,-18.172 8.783,-98.061 H 85.8241 L 82.901,69.9448 h 122.14 0.098 L 208,38 Z"
         id="path1" />
      <path
         fill="#ebebeb"
         d="M 128,38 H 48 l 8.6098,96.593 H 128 V 102.655 H 85.8241 L 82.901,69.9448 H 128 Z"
         id="path2" />
      <path
         fill="#ebebeb"
         d="m 128,185.647 -0.041,0.014 -35.579,-9.624 -2.3788,-26.602 H 57.9388 l 4.5848,51.281 65.4274,18.172 0.049,-0.014 z"
         id="path3" />
    </svg>
  </g>
</svg>
