<?xml version="1.0" encoding="UTF-8" standalone="no"?>
<svg
   width="48"
   height="48"
   viewBox="0 0 256 256"
   fill="none"
   version="1.1"
   id="svg5"
   xmlns="http://www.w3.org/2000/svg"
   xmlns:svg="http://www.w3.org/2000/svg">
  <defs
     id="defs5" />
  <g
     id="g2">
    <svg
       width="256"
       height="256"
       viewBox="0 0 256 256"
       fill="none"
       version="1.1"
       id="svg2">
      <rect
         width="256"
         height="256"
         rx="60"
         fill="#f0db4f"
         id="rect1"
         x="0"
         y="0" />
      <path
         d="m 67.3117,213.932 19.591,-11.856 c 3.7794,6.701 7.2175,12.371 15.4643,12.371 7.905,0 12.889,-3.092 12.889,-15.12 v -81.798 h 24.058 v 82.138 c 0,24.917 -14.606,36.259 -35.916,36.259 -19.2447,0 -30.4161,-9.967 -36.0867,-21.996"
         fill="#323330"
         id="path1" />
      <path
         d="m 152.381,211.354 19.588,-11.341 c 5.157,8.421 11.859,14.607 23.715,14.607 9.969,0 16.325,-4.984 16.325,-11.858 0,-8.248 -6.53,-11.17 -17.528,-15.98 l -6.013,-2.579 c -17.357,-7.388 -28.871,-16.668 -28.871,-36.258 0,-18.044 13.748,-31.792 35.229,-31.792 15.294,0 26.292,5.328 34.196,19.247 l -18.731,12.029 c -4.125,-7.389 -8.591,-10.31 -15.465,-10.31 -7.046,0 -11.514,4.468 -11.514,10.31 0,7.217 4.468,10.139 14.778,14.608 l 6.014,2.577 c 20.449,8.765 31.963,17.699 31.963,37.804 0,21.654 -17.012,33.51 -39.867,33.51 -22.339,0 -36.774,-10.654 -43.819,-24.574"
         fill="#323330"
         id="path2" />
    </svg>
  </g>
</svg>
