<?xml version="1.0" encoding="UTF-8" standalone="no"?>
<svg
   width="48"
   height="48"
   viewBox="0 0 256 256"
   fill="none"
   version="1.1"
   id="svg5"
   xmlns="http://www.w3.org/2000/svg"
   xmlns:svg="http://www.w3.org/2000/svg">
  <defs
     id="defs5" />
  <g
     id="g4">
    <svg
       width="256"
       height="256"
       fill="none"
       viewBox="0 0 256 256"
       version="1.1"
       id="svg4">
      <rect
         width="256"
         height="256"
         fill="#007acc"
         rx="60"
         id="rect2"
         x="0"
         y="0" />
      <path
         fill="#ffffff"
         d="m 56.6112,128.849 -0.0813,10.484 h 16.6603 16.6603 v 47.34 47.339 h 11.7845 11.784 v -47.339 -47.34 h 16.66 16.66 v -10.281 c 0,-5.689 -0.121,-10.443 -0.284,-10.565 -0.122,-0.162 -20.399,-0.244 -44.983,-0.203 l -44.7389,0.122 z"
         id="path3" />
      <path
         fill="#ffffff"
         d="m 206.567,118.108 c 6.501,1.626 11.459,4.511 16.01,9.224 2.357,2.52 5.851,7.112 6.136,8.209 0.081,0.325 -11.053,7.802 -17.798,11.987 -0.244,0.163 -1.22,-0.894 -2.317,-2.519 -3.291,-4.795 -6.745,-6.868 -12.028,-7.233 -7.761,-0.529 -12.759,3.535 -12.718,10.321 0,1.991 0.284,3.169 1.097,4.795 1.706,3.535 4.876,5.648 14.832,9.955 18.326,7.884 26.168,13.085 31.045,20.48 5.445,8.249 6.664,21.415 2.966,31.208 -4.063,10.646 -14.141,17.879 -28.323,20.277 -4.388,0.772 -14.791,0.65 -19.504,-0.203 -10.281,-1.829 -20.033,-6.908 -26.047,-13.572 -2.357,-2.601 -6.949,-9.387 -6.664,-9.875 0.121,-0.162 1.178,-0.812 2.356,-1.503 1.138,-0.65 5.446,-3.129 9.509,-5.486 l 7.355,-4.267 1.544,2.276 c 2.154,3.291 6.867,7.802 9.712,9.305 8.167,4.308 19.383,3.698 24.909,-1.259 2.357,-2.154 3.332,-4.389 3.332,-7.68 0,-2.967 -0.366,-4.267 -1.91,-6.502 -1.991,-2.844 -6.054,-5.242 -17.595,-10.24 -13.206,-5.689 -18.895,-9.224 -24.096,-14.832 -3.007,-3.25 -5.852,-8.452 -7.03,-12.8 -0.975,-3.616 -1.219,-12.678 -0.447,-16.335 2.722,-12.759 12.353,-21.658 26.25,-24.3 4.511,-0.853 14.994,-0.528 19.424,0.569 z"
         id="path4" />
    </svg>
  </g>
</svg>
