<?xml version="1.0" encoding="UTF-8" standalone="no"?>
<svg
   width="55.148029"
   height="50"
   viewBox="0 0 55.148029 50"
   version="1.1"
   preserveAspectRatio="xMidYMid"
   id="svg4"
   xmlns="http://www.w3.org/2000/svg"
   xmlns:svg="http://www.w3.org/2000/svg">
  <defs
     id="defs4" />
  <title
     id="title1">TypeORM</title>
  <g
     id="g4"
     transform="scale(0.21542198)">
    <path
       d="m 138.62984,32.231568 c 3.08079,0 5.58724,2.459055 5.66364,5.521448 l 0.002,0.143985 v 64.845319 c 0,3.0808 -2.45906,5.58725 -5.52145,5.66364 l -0.14398,0.002 H 85.754085 c -3.080794,0 -5.587246,-2.45905 -5.663639,-5.52145 l -0.0018,-0.14398 V 37.897001 c 0,-3.080795 2.459055,-5.587247 5.521449,-5.663639 l 0.143984,-0.0018 z m 0,2.520679 H 85.754085 c -1.699816,0 -3.085508,1.34665 -3.147471,3.031913 l -0.0022,0.112841 v 64.845319 c 0.0026,1.70059 1.350673,3.08555 3.036736,3.14747 l 0.112893,0.002 H 138.6298 c 1.70058,-0.003 3.08554,-1.35067 3.14747,-3.03673 l 0.002,-0.1129 V 37.897001 c -0.003,-1.737588 -1.41204,-3.144754 -3.14963,-3.144754 z M 93.306371,92.669356 v 3.773705 H 89.52779 v -3.773705 z m 42.178709,0 v 3.773705 H 95.198099 V 92.669356 Z M 93.306371,76.302007 v 3.773705 H 89.52779 v -3.773705 z m 42.178709,0 v 3.773705 H 95.198099 V 76.302007 Z M 93.306371,60.563609 v 3.773705 H 89.52779 v -3.773705 z m 42.178709,0 v 3.773705 H 95.198099 v -3.773705 z m 0,-14.480496 v 3.778581 H 89.52779 v -3.778581 z"
       fill="#8e8f8f"
       id="path1" />
    <path
       d="m 138.62984,121.6206 v 0.039 c 3.06585,-7e-5 5.566,2.43602 5.66266,5.48315 l 0.003,0.14328 v 64.84532 c 0,3.08079 -2.45906,5.58724 -5.52145,5.66364 l -0.14398,0.002 H 85.754085 c -1.502566,0 -2.943591,-0.59689 -4.006066,-1.65937 -1.02161,-1.02161 -1.612763,-2.39321 -1.656725,-3.83298 l -0.0026,-0.17308 v -64.84532 c 0,-3.08079 2.459055,-5.58725 5.521449,-5.66364 l 0.143984,-0.002 z m 0,2.52067 H 85.754085 c -1.699816,0 -3.085508,1.34666 -3.147471,3.03192 l -0.0022,0.11284 v 64.84532 c 0.0026,1.70059 1.350673,3.08555 3.036736,3.14747 l 0.112893,0.002 H 138.6298 c 1.69318,-0.003 3.07499,-1.3393 3.14679,-3.01774 l 0.003,-0.11239 v -64.84532 c -0.003,-1.69981 -1.35143,-3.08342 -3.03679,-3.14277 l -0.11284,-0.002 z m -45.323469,57.93174 v 3.77858 H 89.52779 v -3.77858 z m 42.178709,0.0292 v 3.72008 H 95.198099 v -3.72008 z m -42.178709,-16.3966 v 3.77858 H 89.52779 v -3.77858 z m 42.178709,0.0293 v 3.72007 H 95.198099 v -3.72007 z M 93.306371,149.97214 v 3.77371 H 89.52779 v -3.77371 z m 42.178709,0.0292 v 3.7152 H 95.198099 v -3.7152 z m 0,-14.50975 v 3.77858 H 89.52779 v -3.77858 z"
       fill="#8e8f8f"
       id="path2" />
    <polygon
       fill="#8e8f8f"
       points="153.87857,158.99467 153.87857,162.1443 172.76172,162.1443 175.91135,162.1443 175.91135,158.99467 175.91135,73.464415 175.91135,70.319661 172.76172,70.319661 153.87857,70.319661 153.87857,73.464415 172.76172,73.464415 172.76172,158.99467 "
       id="polygon2" />
    <path
       d="M 19.331706,14.795042 C 23.055262,8.6884098 29.188688,5.1261841 35.384627,3.0577429 L 36.229695,2.784843 v 0 l 0.84452,-0.2549739 C 37.496117,2.406765 37.917319,2.2901612 38.337074,2.1797245 l 0.837364,-0.212749 c 0.139166,-0.034121 0.278116,-0.067581 0.416823,-0.1003922 l 0.829102,-0.1891901 c 0.137624,-0.030268 0.274949,-0.059913 0.411949,-0.088946 L 41.650176,1.421484 v 0 l 0.808718,-0.1528853 v 0 l 0.798251,-0.1393994 v 0 l 0.78646,-0.1265055 v 0 l 0.773347,-0.11420359 v 0 l 0.75891,-0.10249376 v 0 l 0.743152,-0.0913759 v 0 l 0.72607,-0.0808501 v 0 l 0.707666,-0.0709162 v 0 l 1.024098,-0.0890435 v 0 l 0.975247,-0.0700224 v 0 l 0.921934,-0.0529994 v 0 l 1.002251,-0.042983 v 0 l 0.91652,-0.0257051 v 0 l 0.559884,-0.009105 0.516531,-0.003776 h 0.471076 l 0.616794,0.007704 0.348251,0.007472 0.635011,0.0214284 0.280158,0.014094 V 15.414241 c -13.368222,-1.27199 -19.333107,2.765485 -21.963572,7.068654 l -0.236961,0.404046 c -0.341162,0.606776 -0.618898,1.215689 -0.844525,1.812713 l -0.142823,0.3961 c -0.02256,0.06567 -0.0445,0.131159 -0.06585,0.196441 l -0.121059,0.389085 v 0 l -0.107482,0.383254 v 0 l -0.09465,0.376498 c -0.01475,0.06214 -0.02899,0.123951 -0.04274,0.185427 l -0.0768,0.364635 c -0.01187,0.06004 -0.02327,0.119707 -0.03424,0.178975 l -0.06062,0.350692 v 0 l -0.05077,0.340243 v 0 l -0.04166,0.32887 v 0 l -0.04705,0.469961 v 0 l -0.03075,0.439177 v 0 l -0.01512,0.344364 -0.0068,0.31835 -2.1e-5,0.290461 0.0053,0.2607 0.009,0.229066 0.01732,0.280186 0.03228,0.3305 -4.88e-4,5.552607 -0.03254,11.336563 -0.03953,8.169414 -0.04627,6.872375 -0.05067,5.807643 -0.04927,4.57304 -0.05802,4.451237 -0.05953,3.795223 -0.07661,4.021444 -0.04724,2.094815 -0.05074,1.979403 -0.06569,2.205266 -0.0231,0.690392 -0.0023,1.275977 -0.0069,0.781368 -0.0086,0.527096 -0.02101,0.798692 v 0 l -0.03145,0.771405 v 0 l -0.02549,0.470213 v 0 l -0.03101,0.472102 v 0 l -0.03707,0.473668 v 0 l -0.06815,0.712734 v 0 l -0.05459,0.476174 v 0 l -0.06254,0.476612 v 0 l -0.07103,0.476728 c -0.01258,0.0795 -0.02553,0.15888 -0.03887,0.23831 l -0.08479,0.47629 c -0.01494,0.0793 -0.03028,0.15864 -0.04605,0.23791 l -0.09976,0.47514 v 0 l -0.110422,0.47396 v 0 l -0.121622,0.47247 c -0.04247,0.15721 -0.08689,0.31411 -0.133362,0.47065 l -0.145643,0.46851 v 0 l -0.158466,0.46604 v 0 l -0.171828,0.46326 c -1.935814,5.00237 -6.319319,9.45748 -16.245421,11.52065 9.656137,2.00485 14.06706,6.26978 16.08197,11.10058 l 0.184743,0.46173 c 0.177681,0.46333 0.334451,0.93131 0.472769,1.40248 l 0.132259,0.47216 c 0.08419,0.31542 0.160552,0.63203 0.229804,0.9494 l 0.09864,0.47658 c 0.01558,0.0795 0.03074,0.15905 0.04549,0.23861 l 0.08367,0.47769 v 0 l 0.07438,0.47802 v 0 l 0.06564,0.47803 v 0 l 0.05744,0.4777 v 0 l 0.04979,0.47707 v 0 l 0.04268,0.47609 v 0 l 0.03612,0.4748 v 0 l 0.04309,0.70906 v 0 l 0.02212,0.47015 v 0 l 0.02709,0.78768 v 0 l 0.01201,0.5205 0.0081,0.51627 0.0065,0.76544 0.0021,1.27079 0.0675,2.21346 0.06035,2.33756 0.05561,2.50653 0.05107,2.65382 0.05411,3.25334 0.07384,5.37497 0.05099,4.55511 0.02493,2.56254 0.05359,6.54594 0.05797,9.71164 0.03998,10.5117 0.01463,-0.009 v 9.32213 l -0.01497,0.13203 -0.01731,0.19847 -0.01186,0.1781 -0.01449,0.33115 v 0 l -0.0053,0.2607 2.2e-5,0.29046 0.0068,0.31835 0.01512,0.34437 0.03026,0.43342 v 0 l 0.02884,0.30582 v 0 l 0.05804,0.48183 v 0 l 0.0496,0.33532 v 0 l 0.05915,0.34557 v 0 l 0.06943,0.35492 c 0.01247,0.0599 0.02539,0.12012 0.03879,0.18069 l 0.08619,0.36728 c 0.01535,0.0618 0.0312,0.12396 0.04757,0.18637 l 0.104558,0.37765 v 0 l 0.117702,0.38345 c 0.02075,0.0643 0.04208,0.12889 0.064,0.19362 l 0.138763,0.39048 c 0.0487,0.13081 0.0999,0.26221 0.153698,0.39406 l 0.169353,0.39674 c 2.099451,4.7072 7.637445,9.79219 21.961062,8.62683 l 0.784553,-0.0693 v 15.11432 l -0.401466,0.0192 -0.743974,0.0218 -0.612081,0.0103 h -0.7269 v 0 l -0.544568,-0.006 -0.589868,-0.0112 -0.632878,-0.0182 -0.821948,-0.0328 v 0 l -0.579217,-0.0293 v 0 l -0.602806,-0.0359 v 0 l -0.625182,-0.043 v 0 l -0.646348,-0.0507 v 0 l -0.666302,-0.0589 v 0 l -0.685046,-0.0677 v 0 l -0.702577,-0.077 v 0 l -0.718898,-0.0868 v 0 l -0.734007,-0.0972 c -0.123527,-0.0171 -0.247632,-0.0346 -0.372291,-0.0527 l -0.7544,-0.11377 c -0.126774,-0.0199 -0.254051,-0.0403 -0.381806,-0.0613 l -0.772068,-0.13158 c -0.129567,-0.023 -0.259562,-0.0464 -0.389959,-0.0705 l -0.787009,-0.15062 c -0.131906,-0.0262 -0.264164,-0.053 -0.396749,-0.0803 l -0.799226,-0.17087 v 0 l -0.805857,-0.18505 c -0.269589,-0.0641 -0.540082,-0.13067 -0.811276,-0.19977 l -0.815483,-0.21505 c -7.490854,-2.04283 -15.359404,-6.07822 -19.407211,-13.98738 0.877606,-9.72192 4.875588,-18.01042 12.057329,-23.16879 0.338041,-0.23836 0.680416,-0.4695 1.027124,-0.69342 l 0.391399,-0.24861 c -0.486071,0.30055 -0.963788,0.61781 -1.433149,0.95178 -7.167115,5.14862 -11.165097,13.43712 -12.042703,23.12004 -1.801911,-3.63836 -2.745941,-7.64132 -2.759582,-11.70141 l -0.09007,-4.16703 -0.116982,-5.05114 -0.146389,-5.91265 -0.199324,-7.53587 -0.18296,-6.53595 -0.252009,-8.55748 -0.284077,-9.16589 -0.475109,-14.42378 -0.115558,-3.34439 c -0.281131,-7.572 -3.320413,-11.26026 -6.4833261,-13.0407 L 7.020078,126.393 c -0.062129,-0.032 -0.124265,-0.0634 -0.1863893,-0.094 l -0.3724426,-0.17571 c -0.1239934,-0.0559 -0.2477797,-0.10915 -0.3712001,-0.1599 L 5.7210418,125.8186 c -0.1225296,-0.0458 -0.2445342,-0.0893 -0.3658552,-0.13041 l -0.3617527,-0.11674 c -0.1197946,-0.0367 -0.2387465,-0.0713 -0.356697,-0.10378 l -0.2827779,-0.0746 -0.2783881,-0.067 -0.273501,-0.0599 -0.268117,-0.053 -0.3909931,-0.0676 v 0 l -0.2524821,-0.0376 -0.2453584,-0.0321 -0.353593,-0.0387 v 0 l -0.3114122,-0.002 -0.6370673,-0.008 c -0.3237078,-0.004 -0.65560312,-0.006 -0.997605,0 L 0,125.03696 v -17.71301 c 0.82884995,0.0293 1.5699393,0.0146 2.2915263,-0.0244 l 0.353593,-0.0387 0.2453584,-0.0321 0.2524821,-0.0376 0.3909931,-0.0676 v 0 l 0.268117,-0.053 0.273501,-0.0599 0.2783881,-0.0671 0.2827779,-0.0746 0.356697,-0.10378 v 0 l 0.3617527,-0.11674 v 0 l 0.3658552,-0.1304 c 3.6758859,-1.37484 7.8241392,-4.90767 8.1548812,-13.815899 l 0.431013,-12.80945 0.331784,-10.464324 0.180173,-5.938575 0.275643,-9.526164 0.180885,-6.62572 0.131001,-5.04672 0.164896,-6.756709 0.09561,-4.20121 0.07147,-3.33018 c 0.109646,-5.248732 1.403264,-9.509269 3.456984,-12.968476 l 0.137299,-0.228477 z M 199.97462,15.165587 V 0.05126404 l 0.40621,-0.01938784 0.56436,-0.01772242 0.3655,-0.00740566 0.64612,-0.006460849 v 0 h 0.49271 l 0.53966,0.005340469 0.83325,0.01722172 v 0 l 1.0622,0.03778218 v 0 l 0.56902,0.02735585 v 0 l 0.5927,0.03371158 v 0 l 0.93088,0.0636534 v 0 l 0.64671,0.0519389 v 0 l 0.66624,0.0601651 v 0 l 0.68456,0.0689257 v 0 l 0.70169,0.0782207 v 0 l 0.71763,0.08805 v 0 l 0.73239,0.0984139 v 0 l 0.74593,0.10931207 v 0 l 0.75831,0.1207447 c 0.12734,0.0211065 0.25516,0.0427117 0.38341,0.0648266 l 0.77461,0.13889556 v 0 l 0.784,0.1516644 v 0 l 0.79219,0.1649673 v 0 l 0.79919,0.1788049 v 0 l 0.80499,0.1931767 c 0.40375,0.1002704 0.80923,0.2061307 1.21577,0.3178814 l 0.8143,0.2314445 c 7.60957,2.2351146 15.43268,6.5925589 19.10744,15.0275631 1.39831,3.296978 2.1307,6.837968 2.15501,10.419131 l 0.0901,4.167718 0.11698,5.051882 0.0825,3.380192 0.12918,5.059239 0.17943,6.663171 0.13754,4.883972 0.25201,8.558046 0.28408,9.166326 0.47511,14.424109 0.11556,3.344397 c 0.28581,7.697979 3.42231,11.379899 6.64129,13.125829 l 0.37163,0.19298 c 0.0619,0.0308 0.12389,0.0609 0.1858,0.0903 l 0.37095,0.16854 v 0 l 0.36932,0.15313 c 0.0614,0.0243 0.12263,0.0479 0.18376,0.071 l 0.36511,0.13135 c 0.0605,0.0207 0.12092,0.0409 0.18111,0.0605 l 0.35877,0.11116 c 0.0594,0.0175 0.11851,0.0344 0.17741,0.0508 l 0.52604,0.13524 v 0 l 0.34266,0.0761 0.33425,0.0655 v 0 l 0.32486,0.0556 0.25248,0.0379 0.24536,0.0324 0.35359,0.0391 v 0 c 0.61851,0.0334 1.26208,0.0489 1.94609,0.0343 l 0.34544,-0.01 v 17.71788 c -0.82885,-0.0293 -1.56994,-0.0146 -2.29153,0.0244 l -0.23374,0.0246 -0.24161,0.0295 -0.37608,0.0544 v 0 l -0.39099,0.0676 v 0 l -0.26812,0.053 -0.2735,0.0599 -0.27839,0.067 -0.28278,0.0746 -0.17765,0.0503 v 0 l -0.35935,0.11017 c -0.0603,0.0195 -0.12079,0.0395 -0.18145,0.06 l -0.36585,0.13041 c -0.0613,0.0229 -0.12266,0.0464 -0.18417,0.0705 l -0.37022,0.15226 c -3.52678,1.51874 -7.28629,5.13026 -7.60049,13.59308 l -0.43102,12.80278 -0.33178,10.46483 -0.18017,5.93921 -0.27565,9.52719 -0.18088,6.62621 -0.131,5.0469 -0.1649,6.75655 -0.0956,4.20082 -0.0715,3.32969 c -0.0277,3.11532 -0.58094,6.20268 -1.63542,9.13228 l -0.12662,0.34322 0.007,0.0319 c -3.76879,9.73526 -12.88612,14.31203 -21.30435,16.44238 l -0.82556,0.20175 c -0.13715,0.0324 -0.27405,0.0641 -0.41069,0.0951 l -0.81639,0.17916 c -0.13546,0.0286 -0.2706,0.0567 -0.40539,0.0842 l -0.80435,0.15785 c -0.1333,0.0252 -0.26619,0.0498 -0.39865,0.0738 l -0.78944,0.13784 c -0.13065,0.0219 -0.26081,0.0433 -0.39047,0.0642 l -0.77165,0.11912 v 0 l -0.75818,0.10735 v 0 l -0.74344,0.0962 v 0 l -0.72743,0.0855 v 0 l -0.71012,0.0755 v 0 l -0.69155,0.066 v 0 l -0.9997,0.0825 v 0 l -0.63951,0.0449 v 0 l -0.91564,0.0535 v 0 l -0.85946,0.0386 v 0 l -1.05108,0.0317 v 0 l -0.59776,0.0102 -0.54925,0.004 h -0.49825 l -0.44474,-0.005 -0.38873,-0.007 -0.47263,-0.0136 -0.41086,-0.0171 -0.14187,-0.008 v -15.11432 c 13.99485,1.33162 19.87604,-3.15566 22.31192,-7.67502 l 0.20905,-0.40465 c 0.0667,-0.13481 0.13045,-0.26949 0.19138,-0.40389 l 0.17444,-0.40223 c 0.0554,-0.13369 0.10813,-0.26695 0.15826,-0.39962 l 0.14283,-0.3961 v 0 l 0.12812,-0.39165 c 0.0202,-0.0649 0.0398,-0.12949 0.0588,-0.19388 l 0.10748,-0.38325 v 0 l 0.0947,-0.3765 v 0 l 0.0826,-0.36882 v 0 l 0.0712,-0.36022 v 0 l 0.0606,-0.35069 v 0 l 0.0508,-0.34024 v 0 l 0.0417,-0.32887 v 0 l 0.0471,-0.46996 v 0 l 0.0222,-0.2964 v 0 l 0.0237,-0.48714 0.007,-0.31835 3e-5,-0.29046 -0.005,-0.2607 -0.009,-0.22907 -0.0113,-0.19556 -0.0233,-0.2831 -0.015,-0.13202 v -8.28851 l 0.0234,-7.71742 0.038,-7.96261 0.0442,-6.71126 0.0591,-6.85097 0.0683,-6.1484 0.0483,-3.57504 0.0447,-2.87935 0.0593,-3.30181 0.0432,-2.0903 0.0461,-1.98817 0.0492,-1.87455 0.066,-2.16591 0.002,-1.27079 0.007,-0.77339 0.008,-0.52168 0.0125,-0.526 0.0281,-0.79602 v 0 l 0.0261,-0.53469 0.0289,-0.47563 v 0 l 0.0348,-0.47737 v 0 l 0.0413,-0.47878 v 0 l 0.0483,-0.47986 v 0 l 0.0559,-0.4806 v 0 l 0.0641,-0.48101 c 0.0114,-0.0802 0.0231,-0.16038 0.0353,-0.24056 l 0.0774,-0.48101 v 0 l 0.0869,-0.48059 v 0 l 0.097,-0.47985 v 0 l 0.10769,-0.47877 c 0.13207,-0.5578 0.28704,-1.11272 0.46888,-1.6624 l 0.16254,-0.46981 c 0.22573,-0.62455 0.48804,-1.24136 0.79286,-1.84689 l 0.23667,-0.45199 c 2.28505,-4.19775 6.72536,-7.79971 15.35373,-9.59314 -10.88231,-2.25944 -15.10272,-7.38756 -16.73948,-12.96155 l -0.13226,-0.47205 c -0.0842,-0.31533 -0.16055,-0.63186 -0.22981,-0.94916 l -0.0986,-0.47647 c -0.0156,-0.0795 -0.0308,-0.15901 -0.0455,-0.23856 l -0.0837,-0.47758 v 0 l -0.0744,-0.477919 v 0 l -0.0656,-0.477927 v 0 l -0.0574,-0.477613 v 0 l -0.0498,-0.476973 v 0 l -0.0427,-0.47601 v 0 l -0.0361,-0.47472 v 0 l -0.0431,-0.708953 v 0 l -0.0221,-0.470077 v 0 l -0.0271,-0.787584 v 0 l -0.012,-0.520447 -0.008,-0.516219 -0.006,-0.765392 -0.002,-1.270755 -0.0464,-1.476805 -0.0519,-1.878065 -0.0578,-2.416539 -0.0532,-2.573904 -0.0488,-2.709772 -0.0584,-3.787224 -0.0689,-5.445822 -0.0521,-5.089261 -0.0487,-5.895534 -0.0628,-10.482733 -0.0409,-11.358996 v 0 c 0.85955,-0.474795 1.69286,-0.995614 2.4963,-1.560188 4.00417,-2.869154 7.01932,-6.734768 9.05233,-11.282298 l 0.13963,-0.318397 c -2.0348,4.686101 -5.09997,8.666555 -9.20659,11.60557 -0.66953,0.470479 -1.3598,0.910572 -2.06872,1.318966 l -0.42758,0.241222 v -8.434767 l 0.015,-0.132028 0.0173,-0.198472 0.0119,-0.178102 0.0145,-0.33115 v 0 l 0.005,-0.2607 -2e-5,-0.290461 -0.007,-0.31835 -0.0151,-0.344364 -0.0185,-0.285459 v 0 l -0.0406,-0.453784 v 0 l -0.0581,-0.481832 v 0 l -0.0496,-0.335322 v 0 l -0.0592,-0.345565 v 0 l -0.0694,-0.354919 c -0.0125,-0.05988 -0.0254,-0.12012 -0.0388,-0.18069 l -0.0862,-0.367285 c -0.0154,-0.06183 -0.0312,-0.123963 -0.0476,-0.186372 l -0.10456,-0.377649 v 0 l -0.1177,-0.383448 c -0.0207,-0.06434 -0.0421,-0.128889 -0.064,-0.193621 l -0.13876,-0.39048 c -0.0487,-0.130805 -0.0999,-0.262207 -0.1537,-0.394056 l -0.16936,-0.396744 c -2.09945,-4.707196 -7.63744,-9.792191 -21.96106,-8.626827 z"
       fill="#fe0902"
       id="path3" />
    <path
       d="m 31.169633,36.09161 c 0.151144,0.109701 0.305944,0.213307 0.461962,0.314475 l 0.469276,0.299849 v -5.553295 l -0.01497,-0.132028 -0.01731,-0.198472 -0.01186,-0.178102 -0.01449,-0.33115 v 0 l -0.0053,-0.2607 2.1e-5,-0.290461 0.0068,-0.31835 0.01512,-0.344364 0.01881,-0.289211 v 0 l 0.02568,-0.303353 v 0 l 0.0333,-0.316574 v 0 l 0.04166,-0.32887 v 0 l 0.05077,-0.340243 v 0 l 0.06062,-0.350692 v 0 l 0.07122,-0.360217 c 0.01279,-0.06078 0.02606,-0.121916 0.03982,-0.183393 l 0.08851,-0.372774 v 0 l 0.100972,-0.379991 c 0.01791,-0.06388 0.03637,-0.128027 0.05539,-0.192414 l 0.121059,-0.389085 c 0.02135,-0.06528 0.0433,-0.130769 0.06585,-0.196441 l 0.142823,-0.3961 c 0.225627,-0.597024 0.503363,-1.205937 0.844525,-1.812713 l 0.236961,-0.404046 c 2.630465,-4.303169 8.59535,-8.340644 21.963572,-7.068654 V 0.29991902 l -0.280158,-0.014094 -0.480556,-0.0172219 -0.322111,-0.008138 -0.797389,-0.0106314 v 0 l -0.471076,-6.1281e-4 -0.516531,0.003776 -0.855427,0.0159492 v 0 L 51.515,0.29368453 v 0 l -0.840971,0.0371047 -0.921934,0.0529994 v 0 l -0.975247,0.0700224 v 0 l -0.67758,0.0571255 v 0 l -1.054184,0.10283418 v 0 l -0.72607,0.0808501 v 0 l -0.743152,0.0913759 v 0 l -0.75891,0.10249376 v 0 L 44.043605,1.002694 v 0 l -0.78646,0.1265055 v 0 l -0.798251,0.1393994 v 0 l -0.808718,0.1528853 v 0 l -0.817864,0.1669632 c -0.137,0.029033 -0.274325,0.058678 -0.411949,0.088946 l -0.829102,0.1891901 c -0.138707,0.032812 -0.277657,0.066272 -0.416823,0.1003922 l -0.837364,0.212749 C 37.917319,2.2901612 37.496117,2.406765 37.074215,2.5298691 l -0.84452,0.2549739 v 0 L 35.384627,3.0577429 C 29.188688,5.1261841 23.055262,8.6884098 19.331706,14.795042 c 1.20427,8.91745 5.133994,16.518492 11.837927,21.296568 z m 24.855748,195.95963 v -15.11432 c -14.621493,1.39124 -20.386455,-3.56918 -22.618824,-8.28177 l -0.182819,-0.40318 c -0.08721,-0.20113 -0.168207,-0.40146 -0.243416,-0.60047 L 32.8375,207.2554 c -0.02256,-0.0657 -0.04451,-0.13115 -0.06585,-0.19644 l -0.121059,-0.38908 v 0 l -0.107482,-0.38326 v 0 l -0.09465,-0.37649 v 0 l -0.08256,-0.36882 v 0 l -0.07122,-0.36022 v 0 l -0.06062,-0.35069 v 0 l -0.05077,-0.34025 v 0 l -0.04166,-0.32887 v 0 l -0.04705,-0.46996 v 0 l -0.03075,-0.43917 v 0 l -0.01512,-0.34437 -0.0068,-0.31835 -2.2e-5,-0.29046 0.0053,-0.2607 0.009,-0.22907 0.0113,-0.19555 0.02333,-0.2831 0.01497,-0.14049 v -9.31367 c -0.526563,0.32504 -1.043375,0.66634 -1.550437,1.02388 -7.181741,5.15837 -11.179723,13.44687 -12.057329,23.16879 4.047807,7.90916 11.916357,11.94455 19.407211,13.98738 l 0.815483,0.21505 c 0.271194,0.0691 0.541687,0.13566 0.811276,0.19977 l 0.805857,0.18505 v 0 l 0.799226,0.17087 v 0 l 0.791385,0.15724 c 0.131177,0.0251 0.261976,0.0497 0.392373,0.0737 l 0.777351,0.13779 c 0.128687,0.0219 0.25692,0.0434 0.384676,0.0643 l 0.760591,0.11958 c 0.125742,0.019 0.250955,0.0374 0.375615,0.0555 l 0.741107,0.10258 c 0.122343,0.0162 0.244082,0.032 0.365191,0.0473 l 0.718898,0.0868 v 0 l 0.702577,0.077 v 0 l 0.685046,0.0677 v 0 l 0.666302,0.0589 v 0 l 0.646348,0.0507 v 0 l 0.625182,0.043 v 0 l 0.602806,0.0359 v 0 l 0.859601,0.0417 v 0 l 0.541564,0.0205 v 0 l 0.632878,0.0182 0.589868,0.0112 0.544568,0.005 0.7269,-10e-4 0.612081,-0.009 0.489527,-0.0127 z M 238.10659,17.330348 C 234.19791,8.3584077 225.59594,3.9996696 217.54969,1.9012465 l -0.80258,-0.2023951 v 0 l -0.7977,-0.1878491 c -0.13249,-0.030125 -0.26471,-0.059666 -0.39667,-0.088633 l -0.78821,-0.1670107 c -0.13075,-0.026717 -0.26118,-0.052883 -0.39126,-0.078508 L 213.59718,1.029502 v 0 l -0.76656,-0.13489423 v 0 l -0.75585,-0.1229626 v 0 l -0.74399,-0.11155389 v 0 l -0.73094,-0.10066802 v 0 l -0.71675,-0.090305 v 0 l -0.70137,-0.0804649 v 0 l -0.68484,-0.0711476 v 0 l -0.66714,-0.0623532 v 0 l -0.96496,-0.0781841 v 0 l -0.91857,-0.0613378 v 0 l -0.86825,-0.04625617 v 0 l -0.81398,-0.03293921 v 0 l -0.51056,-0.0154326 v 0 L 203.13856,0.00789081 202.5706,0.00125736 202.05198,0 l -0.46681,0.00301694 -0.41254,0.00618942 -0.51169,0.01282235 -0.37576,0.01376279 -0.31056,0.01547254 V 15.165587 c 14.62149,-1.39124 20.38645,3.569175 22.61882,8.281769 l 0.18282,0.403175 c 0.0872,0.201131 0.16821,0.40146 0.24342,0.600468 l 0.14282,0.3961 c 0.0226,0.06567 0.0445,0.131159 0.0659,0.196441 l 0.12106,0.389085 v 0 l 0.10749,0.383254 v 0 l 0.0946,0.376498 v 0 l 0.0826,0.36882 v 0 l 0.0712,0.360217 v 0 l 0.0606,0.350692 v 0 l 0.0508,0.340243 v 0 l 0.0417,0.32887 v 0 l 0.047,0.469961 v 0 l 0.0308,0.439177 v 0 l 0.0151,0.344364 0.007,0.31835 2e-5,0.290461 -0.005,0.2607 -0.009,0.229066 -0.0173,0.280186 -0.0323,0.332762 v 8.432505 c 0.85955,-0.474794 1.69287,-0.995614 2.4963,-1.560188 6.49916,-4.651311 10.38988,-11.911061 11.71604,-20.448215 z M 227.03413,194.58722 c -0.99686,-0.70918 -2.04105,-1.34937 -3.12525,-1.91611 v 8.28851 l 0.015,0.13202 0.0173,0.19848 0.0119,0.1781 0.0145,0.33115 v 0 l 0.005,0.2607 -3e-5,0.29046 -0.007,0.31835 -0.0237,0.48714 v 0 l -0.0222,0.2964 v 0 l -0.0471,0.46996 v 0 l -0.0417,0.32887 v 0 l -0.0508,0.34024 v 0 l -0.0606,0.35069 v 0 l -0.0712,0.36022 v 0 l -0.0826,0.36882 v 0 l -0.0947,0.3765 v 0 l -0.10748,0.38325 c -0.019,0.0644 -0.0386,0.12902 -0.0588,0.19388 l -0.12812,0.39165 v 0 l -0.14283,0.3961 c -0.0501,0.13267 -0.10285,0.26593 -0.15826,0.39962 l -0.17444,0.40223 c -0.0609,0.1344 -0.12468,0.26908 -0.19138,0.40389 l -0.20905,0.40465 c -2.43588,4.51936 -8.31707,9.00664 -22.31192,7.67502 v 15.11432 l 0.22366,0.0116 0.64419,0.0228 v 0 l 0.79109,0.0142 v 0 l 0.48039,0.003 0.81937,-0.005 v 0 l 0.60837,-0.011 0.65505,-0.0184 0.81133,-0.032 v 0 l 0.8662,-0.0453 v 0 l 0.60601,-0.0384 v 0 l 0.94886,-0.0713 v 0 l 0.65744,-0.0574 v 0 l 0.67595,-0.066 v 0 l 0.69329,-0.075 v 0 l 0.70946,-0.0846 v 0 l 0.72445,-0.0947 v 0 l 0.73826,-0.10531 v 0 l 0.7509,-0.11646 c 0.12614,-0.0204 0.25276,-0.0412 0.37983,-0.0626 l 0.76766,-0.13418 v 0 l 0.77736,-0.14666 c 0.1303,-0.0255 0.26096,-0.0516 0.39195,-0.0782 l 0.78971,-0.16636 c 0.13222,-0.0289 0.26471,-0.0583 0.39747,-0.0883 l 0.79941,-0.18725 c 8.55586,-2.07415 17.96518,-6.63719 21.80948,-16.56751 -1.52118,-7.93258 -5.35339,-14.64139 -11.47226,-19.02454 z"
       fill="#ffab00"
       id="path4" />
  </g>
</svg>
