<?xml version="1.0" encoding="UTF-8" standalone="no"?>
<!-- Created with Inkscape (http://www.inkscape.org/) -->

<svg
   width="8.4666624mm"
   height="8.4666672mm"
   viewBox="0 0 8.4666624 8.4666672"
   version="1.1"
   id="svg1"
   xmlns="http://www.w3.org/2000/svg"
   xmlns:svg="http://www.w3.org/2000/svg">
  <defs
     id="defs1" />
  <g
     id="layer1"
     transform="translate(-35.890561,-47.778956)">
    <rect
       style="fill:#3b82f6;fill-opacity:0.996078;fill-rule:evenodd;stroke:#008080;stroke-width:0;stroke-linecap:round;stroke-linejoin:round;stroke-dasharray:none;paint-order:fill markers stroke"
       id="rect2"
       width="8.4666653"
       height="8.4666653"
       x="35.89056"
       y="47.778957"
       rx="0"
       ry="1.3408779" />
    <path
       d="m 52.770398,42.897403 v 1.947133 h -1.027812 v -0.316909 -1.173419 q 0,-0.41398 -0.01999,-0.571007 -0.01713,-0.157027 -0.06281,-0.231258 -0.05996,-0.09993 -0.162737,-0.154171 -0.102781,-0.0571 -0.234113,-0.0571 -0.319763,0 -0.502486,0.248388 -0.182722,0.245533 -0.182722,0.682353 v 1.573124 H 49.55563 v -3.197638 h 1.022102 v 0.468225 q 0.231258,-0.279793 0.491066,-0.411125 0.259808,-0.134186 0.573862,-0.134186 0.553877,0 0.83938,0.339749 0.288358,0.339749 0.288358,0.987841 z"
       transform="scale(0.82201055,1.2165294)"
       id="path1" />
    <path
       d="m 44.853389,40.58197 h 1.099188 v 2.555255 q 0,0.528182 0.171302,0.756584 0.174157,0.225548 0.565297,0.225548 0.393995,0 0.565297,-0.225548 0.174157,-0.228402 0.174157,-0.756584 V 40.58197 h 1.099188 v 2.555255 q 0,0.905046 -0.45395,1.347577 -0.453951,0.44253 -1.384692,0.44253 -0.927886,0 -1.381836,-0.44253 -0.453951,-0.442531 -0.453951,-1.347577 z"
       transform="scale(0.82201055,1.2165294)"
       id="text2" />
  </g>
</svg>
